<?xml version="1.0" encoding="UTF-8"?><svg id="Layer_1" xmlns="http://www.w3.org/2000/svg" viewBox="0 0 25 25"><defs><style>.cls-1{fill:#bebebe;}</style></defs><g id="tootericon_twitter"><path id="Path_317" class="cls-1" d="M21.89,6.77c-.7,.31-1.45,.51-2.21,.6,.8-.47,1.4-1.21,1.69-2.09-.76,.44-1.59,.75-2.45,.92-.73-.77-1.75-1.2-2.81-1.2-2.11-.02-3.84,1.67-3.86,3.78,0,0,0,0,0,0,0,.29,.03,.58,.1,.87-3.08-.14-5.97-1.58-7.94-3.95-.34,.58-.52,1.23-.52,1.9,0,1.27,.65,2.46,1.71,3.15-.61-.02-1.21-.18-1.75-.47v.05c.01,1.81,1.3,3.37,3.09,3.71-.57,.15-1.16,.17-1.74,.06,.52,1.55,1.96,2.61,3.6,2.63-1.37,1.05-3.05,1.62-4.77,1.61-.31,0-.61-.02-.92-.05,1.77,1.11,3.82,1.7,5.91,1.7,5.96,.1,10.86-4.66,10.96-10.61,0-.05,0-.11,0-.16,0-.16,0-.33-.01-.49,.75-.53,1.4-1.2,1.92-1.96"/></g></svg>