<?xml version="1.0" standalone="no"?>
<!DOCTYPE svg PUBLIC "-//W3C//DTD SVG 20010904//EN"
 "http://www.w3.org/TR/2001/REC-SVG-20010904/DTD/svg10.dtd">
<svg version="1.0" xmlns="http://www.w3.org/2000/svg"
 width="300.000000pt" height="300.000000pt" viewBox="0 0 300.000000 300.000000"
 preserveAspectRatio="xMidYMid meet">
<metadata>
Created by potrace 1.14, written by Peter Selinger 2001-2017
</metadata>
<g transform="translate(0.000000,300.000000) scale(0.100000,-0.100000)"
fill="#000000" stroke="none">
<path d="M1469 2230 c-10 -6 -22 -31 -28 -57 -19 -84 -123 -557 -128 -583 -2
-14 -17 -85 -34 -158 -16 -73 -32 -150 -35 -170 -3 -20 -8 -40 -10 -43 -2 -3
-6 -19 -8 -36 -5 -25 -28 -129 -84 -380 l-10 -43 368 0 368 0 -14 63 c-8 34
-18 82 -23 107 -6 25 -31 140 -56 255 -25 116 -57 260 -70 320 -13 61 -33 154
-45 209 -12 54 -23 106 -25 115 -2 9 -13 59 -25 111 -12 52 -24 109 -26 125
-3 17 -10 48 -16 70 -5 22 -12 49 -14 60 -7 38 -50 55 -85 35z"/>
<path d="M273 2082 c-12 -2 -25 -13 -30 -25 -4 -12 -7 -309 -8 -659 l0 -638
262 0 c205 0 261 3 258 13 -21 65 -384 1161 -404 1220 -27 81 -40 96 -78 89z"/>
<path d="M2671 2058 c-4 -13 -17 -50 -29 -83 -17 -50 -364 -1099 -392 -1188
l-9 -27 262 2 262 3 0 640 c1 424 -3 646 -9 658 -16 26 -74 23 -85 -5z"/>
</g>
</svg>
