<?xml version="1.0" encoding="UTF-8"?><svg id="Layer_2" xmlns="http://www.w3.org/2000/svg" xmlns:xlink="http://www.w3.org/1999/xlink" viewBox="0 0 31 31"><defs><style>.cls-1{fill:none;}.cls-2{clip-path:url(#clippath);}.cls-3{fill:#fff;}</style><clipPath id="clippath"><rect class="cls-1" width="31" height="31"/></clipPath></defs><g id="Layer_1-2"><g id="Group_30245"><g id="Group_30234"><g class="cls-2"><g id="Group_30233"><path id="Path_31087" class="cls-3" d="m15.65,24.53c.8,0,1.45-.67,1.44-1.47s-.67-1.45-1.47-1.44-1.45.67-1.44,1.47c0,.38.16.74.43,1.01.27.28.65.43,1.05.43m-1.35-5.66h2.29c0-.62.08-1.24.25-1.84.34-.77.88-1.44,1.57-1.92.69-.54,1.27-1.21,1.7-1.98.34-.66.51-1.39.5-2.13.05-1.24-.43-2.44-1.34-3.29-.98-.86-2.25-1.3-3.55-1.24-1.19-.02-2.35.31-3.35.95-.96.63-1.7,1.54-2.11,2.62l2.05.77c.25-.68.7-1.26,1.29-1.69.59-.41,1.3-.62,2.02-.6.78-.04,1.54.22,2.13.72.53.46.83,1.14.81,1.84,0,.57-.18,1.13-.5,1.61-.42.59-.91,1.12-1.47,1.57-.68.56-1.27,1.24-1.72,2-.41.81-.6,1.71-.56,2.62m1.2,12.12c-2.06.01-4.11-.4-6.01-1.22-3.73-1.58-6.69-4.55-8.27-8.27C.4,19.61-.01,17.56,0,15.5c-.01-2.08.4-4.14,1.22-6.05.78-1.84,1.91-3.51,3.33-4.92,1.42-1.41,3.1-2.53,4.94-3.31C11.39.4,13.44-.01,15.5,0c2.08-.01,4.14.4,6.05,1.22,3.71,1.57,6.67,4.52,8.23,8.23.82,1.91,1.23,3.97,1.22,6.05.01,2.06-.4,4.11-1.22,6.01-.78,1.84-1.91,3.52-3.31,4.94-1.41,1.42-3.08,2.55-4.92,3.33-1.91.82-3.97,1.23-6.05,1.22m0-2.33c3.51.06,6.89-1.33,9.34-3.86,2.51-2.45,3.89-5.82,3.84-9.32.07-3.51-1.32-6.89-3.84-9.34-2.45-2.51-5.83-3.9-9.34-3.84-3.5-.06-6.87,1.33-9.32,3.84-2.52,2.44-3.92,5.83-3.86,9.34-.06,3.51,1.34,6.88,3.86,9.32,2.44,2.52,5.81,3.91,9.32,3.86"/></g></g></g></g></g></svg>