<?xml version="1.0" encoding="UTF-8"?><svg id="Layer_1" xmlns="http://www.w3.org/2000/svg" xmlns:xlink="http://www.w3.org/1999/xlink" viewBox="0 0 82 82"><defs><style>.cls-1{fill:none;}.cls-2{clip-path:url(#clippath);}.cls-3{fill:#fff;}.cls-4{fill:#ffce5a;}</style><clipPath id="clippath"><rect class="cls-1" x="3.71" y="2.44" width="74.58" height="77.13"/></clipPath></defs><g id="Group_30239"><g class="cls-2"><g id="Group_30238"><path id="Path_31094" class="cls-3" d="m30.51,50.09l-6-18.11c-.05-.23-.24-.4-.47-.43h-.33c-.29,0-.52.33-.52.75v17.79h7.32Z"/><path id="Path_31095" class="cls-3" d="m58.67,50.09v-17.79c0-.42-.23-.75-.52-.75h-.33c-.23.03-.42.2-.47.43l-6,18.11h7.32Z"/><path id="Path_31096" class="cls-3" d="m46.07,50.09l-4.39-20.15c-.1-.41-.51-.66-.92-.56-.28.07-.49.28-.56.56l-4.39,20.15h10.25Z"/><path id="Path_31097" class="cls-3" d="m41,2.44C20.42,2.42,3.73,19.09,3.71,39.66c0,7.68,2.36,15.17,6.78,21.46v-5.78C1.86,38.47,8.54,17.81,25.4,9.19c16.86-8.63,37.52-1.95,46.15,14.91,8.63,16.86,1.95,37.52-14.91,46.15-7.82,4-16.87,4.85-25.29,2.37l-2.39,2.39c19.49,6.65,40.68-3.76,47.33-23.25,6.65-19.49-3.76-40.68-23.25-47.33-3.88-1.32-7.94-2-12.04-2"/><path id="Path_31098" class="cls-4" d="m21.36,53.26c-.67-.69-1.77-.7-2.46-.03-.34.34-.53.8-.53,1.28v23.31c0,.96.78,1.74,1.74,1.74s1.74-.78,1.74-1.74v-23.32c.02-.47-.16-.92-.49-1.25"/><path id="Path_31099" class="cls-4" d="m7.21,64.92c-.69.67-.7,1.77-.03,2.46.34.34.8.53,1.28.53h23.31c.96,0,1.74-.78,1.74-1.74s-.78-1.74-1.74-1.74H8.45c-.47-.01-.92.16-1.25.49"/></g></g></g></svg>