<?xml version="1.0" encoding="UTF-8"?><svg id="Layer_1" xmlns="http://www.w3.org/2000/svg" xmlns:xlink="http://www.w3.org/1999/xlink" viewBox="0 0 82 82"><defs><style>.cls-1{fill:none;}.cls-2{clip-path:url(#clippath);}.cls-3{fill:#fff;}.cls-4{fill:#ffcc3b;}.cls-5{fill:#ffce5a;}</style><clipPath id="clippath"><rect class="cls-1" x="3.71" y="2.61" width="74.58" height="76.79"/></clipPath></defs><g id="Group_30241"><g class="cls-2"><g id="Group_30240"><path id="Path_31100" class="cls-3" d="m30.51,50.26l-6-18.11c-.05-.23-.24-.4-.47-.43h-.33c-.29,0-.52.33-.52.75v17.79h7.32Z"/><path id="Path_31101" class="cls-3" d="m58.67,50.26v-17.79c0-.42-.23-.75-.52-.75h-.33c-.23.03-.42.2-.47.43l-6,18.11h7.32Z"/><path id="Path_31102" class="cls-3" d="m46.07,50.26l-4.39-20.15c-.1-.41-.51-.66-.92-.56-.28.07-.49.28-.56.56l-4.39,20.15h10.25Z"/><path id="Path_31103" class="cls-3" d="m41,2.61C20.42,2.59,3.73,19.25,3.71,39.83c0,5.69,1.29,11.3,3.79,16.41.41-1.05,1.19-1.92,2.2-2.42-1.97-4.38-2.99-9.12-2.99-13.93C6.71,20.96,22.06,5.61,41,5.61s34.29,15.35,34.29,34.29-15.35,34.29-34.29,34.29h0c-2.43,0-4.86-.28-7.23-.81-.04.24-.1.48-.17.71-.01.03-.02.07-.03.1-.07.23-.16.45-.27.66-.01.02-.02.05-.03.07-.23.46-.53.88-.89,1.24h0c20.03,4.76,40.13-7.62,44.89-27.65S69.66,8.38,49.62,3.62c-2.83-.67-5.72-1.01-8.62-1.01"/><path id="Path_31104" class="cls-5" d="m24.11,71.76c.17.18.41.29.67.29.27,0,.52-.12.7-.32.2-.19.32-.45.33-.73.02-.27-.1-.53-.3-.7l-4.34-4.34v-5.45c0-.24-.09-.48-.27-.65-.37-.38-.97-.39-1.34-.02-.19.18-.29.44-.29.7v5.8c0,.12.02.24.06.35.05.11.11.22.19.32l4.59,4.76Zm-3.99,7.26c-1.69,0-3.36-.33-4.91-1-3.05-1.29-5.48-3.72-6.77-6.77-1.33-3.14-1.33-6.69,0-9.83,1.29-3.05,3.72-5.48,6.77-6.77,3.14-1.33,6.69-1.33,9.83,0,3.05,1.29,5.48,3.72,6.77,6.77,1.33,3.14,1.33,6.69,0,9.83-1.29,3.05-3.72,5.48-6.77,6.77-1.55.67-3.22,1.01-4.91,1m0-1.9c2.87.04,5.62-1.11,7.61-3.17,4.2-4.17,4.23-10.95.06-15.15-.02-.02-.04-.04-.06-.06-1.99-2.06-4.74-3.21-7.61-3.17-2.87-.04-5.62,1.11-7.61,3.17-4.2,4.17-4.23,10.95-.06,15.15.02.02.04.04.06.06,1.99,2.06,4.74,3.21,7.61,3.17"/><path id="Path_31105" class="cls-4" d="m20.11,79.39c-1.74,0-3.46-.34-5.06-1.03-3.14-1.33-5.63-3.83-6.97-6.97-1.37-3.24-1.37-6.89,0-10.13,1.33-3.14,3.83-5.63,6.97-6.97,3.24-1.37,6.89-1.37,10.12,0,3.14,1.33,5.63,3.83,6.97,6.97,1.37,3.24,1.37,6.89,0,10.13-1.33,3.14-3.83,5.63-6.97,6.96-1.6.69-3.32,1.04-5.06,1.03m0-25.36c-1.64,0-3.26.32-4.76.97-2.96,1.25-5.32,3.61-6.58,6.57-1.29,3.05-1.29,6.49,0,9.53,1.26,2.96,3.61,5.32,6.57,6.57,3.05,1.28,6.48,1.28,9.53,0,2.96-1.26,5.32-3.61,6.57-6.57,1.29-3.05,1.29-6.49,0-9.53-1.26-2.96-3.61-5.32-6.57-6.57-1.51-.65-3.13-.98-4.77-.97m0,23.46c-2.96.03-5.81-1.15-7.88-3.28-4.35-4.31-4.38-11.34-.06-15.68.02-.02.04-.04.06-.06,2.06-2.13,4.91-3.32,7.88-3.28,2.96-.04,5.81,1.15,7.88,3.28,4.35,4.31,4.38,11.34.07,15.68-.02.02-.04.04-.07.07-2.06,2.13-4.91,3.32-7.88,3.28m0-21.56c-2.76-.03-5.42,1.07-7.34,3.06-4.06,4.02-4.09,10.56-.07,14.62.02.02.05.05.07.07,1.92,1.99,4.58,3.1,7.34,3.06,2.76.03,5.42-1.07,7.34-3.06,4.06-4.02,4.09-10.57.07-14.62-.02-.02-.04-.04-.07-.07-1.92-1.99-4.58-3.09-7.34-3.06m4.66,16.49c-.35,0-.69-.14-.93-.39h0l-4.6-4.75c-.11-.13-.2-.28-.27-.44-.06-.16-.09-.32-.09-.49v-5.8c0-.35.13-.7.38-.95.53-.5,1.36-.5,1.89,0,.24.24.38.57.38.92v5.3l4.24,4.23c.28.25.43.61.41.98-.02.37-.17.72-.44.98-.25.27-.6.42-.96.43m-.4-.92c.2.22.55.24.77.03.02-.02.04-.04.06-.07.13-.12.22-.3.22-.48,0-.15-.06-.3-.18-.4l-4.47-4.48v-5.61c0-.14-.05-.28-.16-.38-.23-.22-.6-.22-.83,0-.11.11-.17.26-.16.42v5.8c0,.07.01.14.04.21.03.08.08.15.13.22l4.57,4.74Z"/></g></g></g></svg>