<?xml version="1.0" encoding="UTF-8"?><svg id="Layer_1" xmlns="http://www.w3.org/2000/svg" xmlns:xlink="http://www.w3.org/1999/xlink" viewBox="0 0 82 82"><defs><style>.cls-1{fill:none;}.cls-2{clip-path:url(#clippath);}.cls-3{fill:#fff;}.cls-4{fill:#ffce5a;}</style><clipPath id="clippath"><rect class="cls-1" x="2.69" y="2.56" width="76.63" height="76.88"/></clipPath></defs><g id="Group_30237"><g class="cls-2"><g id="Group_30236"><path id="Path_31088" class="cls-3" d="m3.11,62.99c.28-.27.66-.42,1.05-.4.39-.02.77.13,1.05.4l11.3,11.3v-24.75c0-.83.67-1.5,1.5-1.5s1.5.67,1.5,1.5v24.75l11.3-11.3c.62-.53,1.53-.53,2.15,0,.53.6.53,1.5,0,2.1l-13.9,13.9c-.14.15-.31.27-.5.35-.18.07-.36.1-.55.1-.18,0-.36-.04-.52-.1-.2-.08-.38-.2-.52-.35l-13.9-13.9c-.27-.28-.41-.66-.38-1.05,0-.39.15-.77.43-1.05"/><path id="Path_31089" class="cls-3" d="m31.53,50.22l-5.99-18.11c-.05-.23-.24-.4-.47-.43h-.33c-.29,0-.52.33-.52.75v17.79h7.31Z"/><path id="Path_31090" class="cls-3" d="m59.7,50.22v-17.79c0-.42-.23-.75-.52-.75h-.33c-.23.03-.42.2-.47.43l-5.99,18.11h7.31,0Z"/><path id="Path_31091" class="cls-3" d="m47.09,50.22l-4.38-20.15c-.1-.41-.51-.66-.92-.56-.28.07-.49.28-.56.56l-4.39,20.15h10.25Z"/><path id="Path_31092" class="cls-3" d="m42.03,2.56c-20.58-.02-37.27,16.65-37.29,37.23,0,7.68,2.36,15.17,6.78,21.46v-5.78c-8.63-16.86-1.95-37.52,14.91-46.15,16.86-8.63,37.52-1.95,46.15,14.91,8.63,16.86,1.95,37.52-14.91,46.15-7.82,4-16.87,4.85-25.29,2.37l-2.39,2.39c19.49,6.65,40.68-3.76,47.33-23.25,6.65-19.49-3.76-40.68-23.25-47.33-3.88-1.32-7.94-2-12.04-2"/><path id="Path_31093" class="cls-4" d="m3.11,62.99c.28-.27.66-.42,1.05-.4.39-.02.77.13,1.05.4l11.3,11.3v-24.75c0-.83.67-1.5,1.5-1.5s1.5.67,1.5,1.5v24.75l11.3-11.3c.62-.53,1.53-.53,2.15,0,.53.6.53,1.5,0,2.1l-13.9,13.9c-.14.15-.31.27-.5.35-.18.07-.36.1-.55.1-.18,0-.36-.04-.52-.1-.2-.08-.38-.2-.52-.35l-13.9-13.9c-.27-.28-.41-.66-.38-1.05,0-.39.15-.77.43-1.05"/></g></g></g></svg>