<?xml version="1.0" encoding="UTF-8"?><svg id="Layer_2" xmlns="http://www.w3.org/2000/svg" xmlns:xlink="http://www.w3.org/1999/xlink" viewBox="0 0 773.67 471.61"><defs><style>.cls-1{fill:url(#linear-gradient);}.cls-2{fill:#fff;}.cls-3{fill:#fee496;}.cls-4{fill:#fba037;}.cls-5{fill:#b1b1b1;}.cls-6{fill:url(#linear-gradient-3);}.cls-7{fill:url(#linear-gradient-2);}</style><linearGradient id="linear-gradient" x1="649.19" y1="-342.86" x2="650.19" y2="-342.86" gradientTransform="translate(-15482.27 -20905.03) scale(24.32 -61.67)" gradientUnits="userSpaceOnUse"><stop offset="0" stop-color="#ffe89b"/><stop offset=".17" stop-color="#fee091"/><stop offset=".45" stop-color="#fdcd76"/><stop offset=".82" stop-color="#fbaf4c"/><stop offset="1" stop-color="#fb9e34"/></linearGradient><linearGradient id="linear-gradient-2" x1="649.19" y1="-342.86" x2="650.19" y2="-342.86" gradientTransform="translate(-15388.59 -20905.04) scale(24.32 -61.67)" xlink:href="#linear-gradient"/><linearGradient id="linear-gradient-3" x1="653.11" y1="-341.86" x2="654.11" y2="-341.86" gradientTransform="translate(-21923.02 -23354.56) scale(34.1 -69)" xlink:href="#linear-gradient"/></defs><g id="Layer_1-2"><g id="Group_29864"><g id="header_logo"><g id="Group_28648"><g id="Group_28647"><path id="Path_29864" class="cls-1" d="M330.46,269.13l-19.94-60.25c-.16-.76-.79-1.33-1.56-1.42h-1.09c-.96,0-1.73,1.11-1.73,2.49v59.18h24.32Z"/><path id="Path_29865" class="cls-7" d="M424.14,269.13v-59.18c0-1.38-.77-2.49-1.73-2.49h-1.09c-.77,.09-1.4,.66-1.56,1.42l-19.94,60.25h24.32Z"/><path id="Path_29866" class="cls-6" d="M382.2,269.13l-14.59-67.03c-.31-1.36-1.66-2.21-3.02-1.91-.95,.21-1.69,.96-1.91,1.91l-14.59,67.03h34.1Z"/></g></g></g><g id="Group_29692"><g id="Group_29691"><g id="Group_29690"><path id="Path_30303" class="cls-5" d="M412.92,39.1c-13.42-3.16-27.12-4.96-40.9-5.37v60.81c8.71,.37,17.37,1.53,25.88,3.46l15.02-58.9Z"/><path id="Path_30304" class="cls-3" d="M509.64,224.58l60.87-1.54c-6.59-84.43-64.33-156.16-145.4-180.65l-15.03,58.95c54.68,17.71,93.74,66.05,99.56,123.24"/><path id="Path_30305" class="cls-2" d="M234.72,177.27c23.04-48.52,70.99-80.35,124.65-82.72V33.73c-77.63,2.38-147.3,48.31-180.09,118.72l55.44,24.82Z"/><path id="Path_30306" class="cls-4" d="M571.1,235.66l-60.76,1.54c0,.64,.02,1.29,.02,1.93-.11,79.93-64.99,144.64-144.91,144.53-79.93-.11-144.64-64.99-144.53-144.91,.02-17,3.04-33.86,8.91-49.82l-55.54-24.87c-41.39,105.71,10.75,224.95,116.46,266.34,103.68,40.6,220.83-8.74,264.23-111.28,10.71-25.31,16.21-52.52,16.16-80,0-1.16-.02-2.32-.04-3.47"/></g></g></g></g></g></svg>