<?xml version="1.0" encoding="UTF-8"?><svg id="Layer_2" xmlns="http://www.w3.org/2000/svg" xmlns:xlink="http://www.w3.org/1999/xlink" viewBox="0 0 300.01 436.8"><defs><style>.cls-1{fill:url(#linear-gradient);}.cls-2{fill:#fff;}.cls-3{fill:#fee496;}.cls-4{fill:#fba037;}.cls-5{fill:#b1b1b1;}.cls-6{fill:url(#linear-gradient-3);}.cls-7{fill:url(#linear-gradient-2);}</style><linearGradient id="linear-gradient" x1="-862.85" y1="-1133.26" x2="-861.85" y2="-1133.26" gradientTransform="translate(15428.67 -50867.82) scale(17.76 -45.02)" gradientUnits="userSpaceOnUse"><stop offset="0" stop-color="#ffe89b"/><stop offset=".17" stop-color="#fee091"/><stop offset=".45" stop-color="#fdcd76"/><stop offset=".82" stop-color="#fbaf4c"/><stop offset="1" stop-color="#fb9e34"/></linearGradient><linearGradient id="linear-gradient-2" x1="-862.82" y1="-1133.26" x2="-861.82" y2="-1133.26" gradientTransform="translate(15490.51 -50867.83) scale(17.75 -45.02)" xlink:href="#linear-gradient"/><linearGradient id="linear-gradient-3" x1="-883.31" y1="-1129.91" x2="-882.31" y2="-1129.91" gradientTransform="translate(22125.11 -56768.84) scale(24.89 -50.37)" xlink:href="#linear-gradient"/></defs><g id="Layer_1-2"><g><g id="Group_29692"><g id="Group_29691"><g id="Group_29690"><path id="Path_30303" class="cls-5" d="M184.52,3.92C174.72,1.61,164.72,.3,154.66,0V44.4c6.36,.27,12.68,1.12,18.89,2.52L184.52,3.92Z"/><path id="Path_30304" class="cls-3" d="M255.12,139.3l44.43-1.13c-4.81-61.63-46.95-113.99-106.13-131.86l-10.98,43.03c39.91,12.93,68.42,48.21,72.67,89.95"/><path id="Path_30305" class="cls-2" d="M54.45,104.77c16.82-35.42,51.82-58.65,90.99-60.38V0C88.77,1.74,37.92,35.26,13.98,86.66l40.47,18.12Z"/><path id="Path_30306" class="cls-4" d="M299.98,147.39l-44.35,1.13c0,.47,.02,.94,.02,1.41-.08,58.34-47.43,105.57-105.78,105.5-58.34-.08-105.57-47.43-105.5-105.78,.02-12.41,2.22-24.72,6.51-36.36L10.34,95.13c-30.17,77.17,7.93,164.19,85.11,194.36,75.64,29.57,161.07-6.41,192.76-81.18,7.82-18.47,11.84-38.33,11.8-58.39,0-.85-.02-1.69-.03-2.54"/></g></g></g><g id="header_logo"><g id="Group_28648"><g id="Group_28647"><path id="Path_29864" class="cls-1" d="M124.88,170.83l-14.55-43.98c-.12-.55-.58-.97-1.14-1.03h-.8c-.7,0-1.26,.81-1.26,1.82v43.2h17.76Z"/><path id="Path_29865" class="cls-7" d="M193.26,170.83v-43.2c0-1-.57-1.82-1.26-1.82h-.8c-.56,.06-1.02,.48-1.14,1.03l-14.55,43.98h17.75Z"/><path id="Path_29866" class="cls-6" d="M162.65,170.83l-10.65-48.93c-.22-.99-1.21-1.62-2.2-1.4-.7,.16-1.24,.7-1.4,1.4l-10.64,48.93h24.89Z"/></g></g></g><circle id="Ellipse_22" class="cls-2" cx="37.51" cy="343.42" r="9.5"/><circle id="Ellipse_25" class="cls-3" cx="37.51" cy="414.42" r="9.5"/><circle id="Ellipse_23" class="cls-5" cx="177.51" cy="343.42" r="9.5"/><circle id="Ellipse_24" class="cls-4" cx="177.51" cy="414.42" r="9.5"/></g></g></svg>