<?xml version="1.0" encoding="UTF-8"?><svg id="Layer_2" xmlns="http://www.w3.org/2000/svg" viewBox="0 0 604.76 362.12"><defs><style>.cls-1{fill:#fff;}.cls-2{fill:#fee496;}.cls-3{fill:#fba037;}.cls-4{fill:#b1b1b1;}</style></defs><g id="Layer_1-2"><g id="Group_29865"><path class="cls-1" d="M205.95,54.19l-3.41-2.08,1.04-1.71,3.41,2.08-1.04,1.71Zm-10.24-6.25l-3.41-2.08,1.04-1.71,3.41,2.08-1.04,1.71Zm-10.24-6.25l-3.42-2.08,1.04-1.71,3.42,2.08-1.04,1.71Zm-10.24-6.25l-3.41-2.08,1.04-1.71,3.41,2.08-1.04,1.71Zm-10.24-6.25l-3.41-2.08,1.04-1.71,3.41,2.08-1.04,1.71Zm-10.24-6.25l-3.41-2.08,1.04-1.71,3.41,2.08-1.04,1.71Zm-10.53-3.22h-4v-2h4v2Zm-12,0h-4v-2h4v2Zm-12,0h-4v-2h4v2Zm-12,0h-4v-2h4v2Zm-12,0h-4v-2h4v2Zm-12,0h-4v-2h4v2Zm-12,0h-4v-2h4v2Zm-12,0h-4v-2h4v2Zm-12,0h-2.04v-2h2.04v2Z"/><path class="cls-1" d="M153.17,336.43h-1.45v-1.34l-.13-.06,.13-.31v-.29h.13l1.01-2.35,1.84,.79-1.52,3.56Zm-9.45,0h-4v-2h4v2Zm-12,0h-4v-2h4v2Zm-12,0h-4v-2h4v2Zm-12,0h-4v-2h4v2Zm-12,0h-4v-2h4v2Zm-12,0h-4v-2h4v2Zm-12,0h-4v-2h4v2Zm-12,0h-2.08v-2h2.08v2Zm98.12-10.92l-1.84-.79,1.57-3.68,1.84,.79-1.57,3.68Zm4.72-11.03l-1.84-.79,1.57-3.68,1.84,.79-1.57,3.68Zm4.72-11.03l-1.84-.79,1.57-3.68,1.84,.79-1.57,3.68Z"/><path class="cls-1" d="M334.49,27.14l-1.1-1.67,2.49-1.64,1.1,1.67-2.49,1.64Zm9.17-6.04l-1.1-1.67,3.34-2.2,1.1,1.67-3.34,2.2Zm10.02-6.6l-1.1-1.67,3.34-2.2,1.1,1.67-3.34,2.2Zm133.76-5.48h-4v-2h4v2Zm-12,0h-4v-2h4v2Zm-12,0h-4v-2h4v2Zm-12,0h-4v-2h4v2Zm-12,0h-4v-2h4v2Zm-12,0h-4v-2h4v2Zm-12,0h-4v-2h4v2Zm-12,0h-4v-2h4v2Zm-12,0h-4v-2h4v2Zm-12,0h-4v-2h4v2Zm-12,0h-4v-2h4v2Z"/><path class="cls-1" d="M453.65,108.98l-1.01-1.73,3.45-2.02,1.01,1.73-3.45,2.02Zm10.36-6.05l-1.01-1.73,3.45-2.02,1.01,1.73-3.45,2.02Zm10.36-6.05l-1.01-1.73,1.42-.83h2.9v2h-2.36l-.95,.56Zm15.31-.56h-4v-2h4v2Zm36,0h-4v-2h4v2Zm-12,0h-4v-2h4v2Zm-12,0h-4v-2h4v2Zm48,0h-4v-2h4v2Zm-12,0h-4v-2h4v2Z"/><g id="Group_29692"><g id="Group_29691"><g id="Group_29690"><path id="Path_30303" class="cls-4" d="M341.39,31.41c-10.51-2.47-21.24-3.88-32.03-4.2v47.62c6.82,.29,13.6,1.2,20.27,2.71l11.76-46.12Z"/><path id="Path_30304" class="cls-2" d="M417.13,176.64l47.66-1.21c-5.16-66.11-50.37-122.28-113.85-141.45l-11.78,46.16c42.82,13.87,73.4,51.72,77.96,96.5"/><path id="Path_30305" class="cls-1" d="M201.86,139.6c18.04-37.99,55.59-62.91,97.61-64.77V27.2c-60.79,1.87-115.34,37.83-141.02,92.96l43.41,19.43Z"/><path id="Path_30306" class="cls-3" d="M465.25,185.31l-47.58,1.21c0,.5,.02,1.01,.02,1.51-.08,62.59-50.88,113.26-113.47,113.18-62.59-.08-113.26-50.88-113.18-113.47,.02-13.31,2.38-26.52,6.98-39.02l-43.49-19.47c-32.42,82.77,8.4,176.14,91.17,208.56,81.19,31.8,172.94-6.84,206.92-87.14,8.39-19.82,12.69-41.12,12.65-62.64,0-.91-.02-1.81-.03-2.72"/></g></g></g></g></g></svg>