<?xml version="1.0" encoding="UTF-8"?><svg id="Layer_2" xmlns="http://www.w3.org/2000/svg" xmlns:xlink="http://www.w3.org/1999/xlink" viewBox="0 0 64.19 72.64"><defs><style>.cls-1{fill:none;}.cls-2{clip-path:url(#clippath);}.cls-3{fill:#fff;}</style><clipPath id="clippath"><rect class="cls-1" width="64.19" height="72.64"/></clipPath></defs><g id="Layer_1-2"><g id="Group_29895"><path id="Path_31020" class="cls-3" d="m4.1,54.74l1.72,4.58h-3.5l1.78-4.58Zm-.31-1.19l-3.79,9.3h.91l1.11-2.79h4.09l1.05,2.79h.95l-3.6-9.3h-.72Z"/><g id="Group_29894"><g class="cls-2"><g id="Group_29893"><path id="Path_31021" class="cls-3" d="m12.72,60.05c0,.35.08.69.22,1.01.12.27.31.51.53.69.24.19.51.33.81.4.34.09.69.13,1.04.12.34,0,.68-.04,1.01-.14.29-.08.56-.21.81-.39.22-.15.4-.36.53-.59.13-.24.19-.51.19-.78.01-.31-.07-.61-.24-.87-.17-.23-.38-.42-.63-.55-.28-.16-.58-.28-.89-.36-.33-.09-.67-.18-1.02-.27-.35-.09-.69-.2-1.02-.31-.32-.11-.62-.26-.89-.46-.26-.2-.47-.45-.63-.74-.17-.35-.26-.74-.24-1.13-.01-.38.08-.76.28-1.08.18-.29.42-.54.71-.73.29-.19.61-.33.95-.42.33-.09.67-.13,1.02-.13.71-.02,1.41.14,2.05.46.62.36,1.07.94,1.27,1.62l-.82.44c-.14-.54-.48-1.01-.95-1.31-.47-.27-1-.41-1.54-.4-.24,0-.49.04-.72.1-.24.06-.47.16-.67.29-.2.13-.36.29-.49.49-.13.2-.19.43-.19.67-.01.3.07.6.24.84.17.22.38.4.63.53.28.15.58.26.89.34.33.09.67.17,1.02.26.35.09.68.19,1.02.3.32.1.62.26.89.45.26.19.47.44.63.73.17.34.25.73.24,1.11.05.81-.28,1.59-.9,2.12-.73.53-1.63.79-2.53.73-.43,0-.86-.04-1.28-.14-.37-.08-.72-.23-1.03-.44-.3-.21-.56-.48-.75-.8-.22-.37-.36-.77-.43-1.2l.89-.46Z"/><path id="Path_31022" class="cls-3" d="m23.96,60.05c0,.35.08.69.22,1.01.12.27.31.51.54.69.24.19.51.33.81.4.34.09.69.13,1.04.12.34,0,.68-.04,1.01-.14.29-.08.56-.21.81-.39.22-.15.4-.36.54-.59.13-.24.19-.51.19-.78.01-.31-.07-.61-.24-.87-.17-.23-.38-.42-.63-.55-.28-.16-.58-.28-.89-.36-.33-.09-.67-.18-1.02-.27-.35-.09-.68-.2-1.02-.31-.32-.11-.62-.26-.89-.46-.26-.2-.47-.45-.63-.74-.17-.35-.26-.74-.24-1.13-.01-.38.09-.76.28-1.08.18-.29.42-.54.71-.73.29-.19.61-.33.95-.42.33-.09.67-.13,1.02-.13.71-.02,1.41.14,2.05.46.62.36,1.07.94,1.27,1.62l-.82.44c-.14-.54-.48-1.01-.95-1.31-.47-.27-1-.41-1.54-.4-.24,0-.49.04-.72.1-.24.06-.47.16-.67.29-.2.13-.36.29-.49.49-.13.2-.19.43-.19.67-.01.3.07.6.24.84.17.22.38.4.63.53.28.15.58.26.89.34.33.09.67.17,1.02.26.35.09.68.19,1.02.3.32.1.62.26.89.45.26.19.47.44.63.73.17.34.25.73.24,1.11.05.81-.28,1.59-.9,2.12-.73.53-1.63.79-2.53.73-.43,0-.86-.04-1.29-.14-.37-.08-.72-.23-1.03-.44-.3-.21-.56-.48-.75-.8-.22-.37-.36-.77-.43-1.2l.88-.45Z"/><path id="Path_31023" class="cls-3" d="m41.56,59.83c0,.48-.07.95-.24,1.4-.15.39-.39.74-.69,1.02-.31.28-.68.49-1.08.62-.91.28-1.89.28-2.81,0-.4-.13-.77-.34-1.08-.62-.31-.28-.54-.63-.69-1.02-.17-.45-.25-.92-.24-1.4v-6.28h.89v6.26c-.01.39.06.78.2,1.15.23.59.73,1.03,1.35,1.19.65.17,1.33.17,1.97,0,.61-.16,1.11-.6,1.34-1.19.14-.37.21-.76.2-1.15v-6.25h.89v6.28Z"/><path id="Path_31024" class="cls-3" d="m46.6,53.55h4.11c.42-.01.84.07,1.23.22.32.13.61.33.84.58.22.24.38.52.48.83.1.31.16.63.16.95.05.69-.22,1.36-.73,1.83-.57.45-1.27.7-2,.72l2.98,4.16h-1.12l-2.95-4.12h-2.11v4.13h-.89v-9.3Zm.89,4.36h2.76c.39.01.78-.04,1.15-.16.26-.09.5-.23.7-.42.16-.16.28-.35.35-.57.07-.2.1-.41.1-.63.02-.48-.15-.95-.48-1.29-.47-.37-1.07-.54-1.67-.48h-2.9v3.55Z"/><path id="Path_31025" class="cls-3" d="m57.84,53.55h6.08v.81h-5.2v3.29h4.69v.81h-4.69v3.58h5.47v.81h-6.36v-9.3Z"/><path id="Path_31026" class="cls-3" d="m22.2,67.15h2.16c.25,0,.51.04.75.12.21.07.4.18.57.32.16.14.29.3.4.48.11.18.2.38.27.58.07.2.11.41.14.62.03.21.04.41.04.62,0,.31-.04.62-.11.92-.07.32-.2.62-.38.89-.18.27-.42.5-.71.67-.34.19-.73.28-1.11.27h-2.01v-5.49Zm.52,5.01h1.46c.3,0,.6-.06.86-.2.23-.13.42-.31.56-.52.14-.22.24-.47.3-.73.06-.27.09-.54.09-.82,0-.26-.03-.53-.08-.78-.05-.26-.15-.51-.29-.73-.13-.22-.31-.4-.53-.54-.24-.15-.53-.22-.81-.21h-1.56v4.54Z"/><path id="Path_31027" class="cls-3" d="m29.29,67.15h3.59v.48h-3.07v1.94h2.77v.48h-2.77v2.11h3.23v.48h-3.75v-5.49Z"/><path id="Path_31028" class="cls-3" d="m35.79,67.15h3.58v.48h-3.05v1.83h2.73v.48h-2.73v2.7h-.52v-5.49Z"/><rect id="Rectangle_9469" class="cls-3" x="42.1" y="67.15" width=".52" height="5.49"/><path id="Path_31029" class="cls-3" d="m28.01,9.83L32.02,0h.5l14.46,35.4c.8,1.95,1.9,3.77,3.26,5.38,1.23,1.44,2.32,2.16,3.26,2.16v.5h-17.65v-.5c1.17,0,2.02-.86,2.57-2.57.23-.72.35-1.47.34-2.22-.02-1.25-.27-2.49-.72-3.66l-1.82-4.45-.22-.5h.03l-7.79-19.06-.22-.66Z"/><path id="Path_31030" class="cls-3" d="m60.96.32h-.67v1.96h-.41V.32h-.67v-.32h1.75v.32Z"/><path id="Path_31031" class="cls-3" d="m64.19,0v2.28h-.41V.49s0,0,0,0l-.68,1.79h-.32l-.64-1.79h0v1.79s-.38,0-.38,0V0h.56l.63,1.8h0l.67-1.8h.56Z"/><path id="Path_31032" class="cls-3" d="m31.67,31.98c-5.79,0-10.48,5.11-10.48,11.41,0-6.3-4.69-11.41-10.48-11.41,5.79,0,10.48-5.11,10.48-11.41,0,6.3,4.69,11.41,10.48,11.41"/></g></g></g></g></g></svg>