<?xml version="1.0" encoding="UTF-8"?><svg id="Layer_2" xmlns="http://www.w3.org/2000/svg" xmlns:xlink="http://www.w3.org/1999/xlink" viewBox="0 0 66.24 73.61"><defs><style>.cls-1{fill:none;}.cls-2{clip-path:url(#clippath);}.cls-3,.cls-4{fill:#fff;}.cls-4{fill-rule:evenodd;}</style><clipPath id="clippath"><rect class="cls-1" width="66.24" height="73.61"/></clipPath></defs><g id="Layer_1-2"><g id="Group_30185"><g class="cls-2"><g id="Group_30184"><path id="Path_31053" class="cls-4" d="m55.17,8.59l.3,1.8c.23,1.65.33,3.32.3,4.98,0,3.68-.42,7.36-1.28,10.94-1.14,4.86-3.14,9.47-5.91,13.62-3.73,5.47-8.71,9.98-14.52,13.16l-.83.47-.83-.47c-10.34-5.58-17.79-15.34-20.44-26.78-.86-3.58-1.29-7.26-1.28-10.94-.01-1.67.09-3.33.3-4.98l.26-1.8c.04-.14.04-.29,0-.43-.02-.15-.09-.28-.19-.39-.08-.12-.18-.22-.3-.3-.12-.07-.24-.12-.38-.15-.14-.04-.28-.04-.42,0-.14.02-.27.09-.38.19-.12.08-.22.18-.3.3-.07.13-.12.28-.15.43l-.3,1.8c-.23,1.77-.34,3.55-.34,5.33,0,3.87.45,7.72,1.36,11.48.6,2.56,1.43,5.06,2.49,7.47,3.83,8.85,10.55,16.15,19.05,20.71l1.32.74c.16.08.34.12.53.12.18,0,.36-.04.53-.12l1.32-.74c6.12-3.33,11.35-8.07,15.28-13.82,2.93-4.37,5.05-9.24,6.26-14.37.9-3.76,1.34-7.62,1.33-11.48,0-1.8-.11-3.59-.34-5.37l-.3-1.8c-.03-.15-.08-.29-.15-.43-.08-.12-.18-.22-.3-.3-.12-.08-.24-.14-.38-.19-.13-.04-.28-.04-.41,0-.14.04-.28.09-.42.16-.12.07-.23.18-.3.3-.08.12-.14.25-.19.39v.48Z"/><path id="Path_31054" class="cls-4" d="m17.17,7.38l16.06-5.06,16.4,5.18c.14.03.27.05.41.04.15,0,.29-.04.41-.12.13-.07.25-.16.34-.27.1-.11.17-.24.19-.39.03-.14.04-.28.04-.43,0-.15-.04-.3-.11-.43-.07-.13-.16-.25-.26-.35-.1-.1-.23-.17-.38-.2L33.53.06c-.21-.08-.43-.08-.64,0l-16.36,5.18c-.14.04-.26.11-.38.2-.12.09-.21.21-.26.35-.08.13-.12.28-.11.43,0,.14,0,.29.04.42.04.14.1.27.19.39.09.12.21.21.34.28.12.08.27.12.41.11.14,0,.28,0,.42-.04"/><path id="Path_31055" class="cls-4" d="m9.25,8.94l23,46.36c.07.18.2.34.37.43.35.2.78.2,1.13,0,.18-.1.32-.25.41-.43l14.02-27.09.04-.04,8.97-19.27c.06-.14.1-.28.11-.43.01-.15-.01-.29-.07-.43-.04-.15-.12-.28-.23-.39-.09-.12-.2-.21-.34-.27-.12-.08-.27-.12-.41-.12-.14,0-.28,0-.41.04-.15.04-.28.12-.38.23-.12.09-.21.21-.26.35l-8.97,19.27-13.04,25.23L11.17,7.88c-.08-.13-.16-.24-.26-.35-.11-.1-.24-.18-.38-.23-.13-.07-.28-.09-.42-.04-.15,0-.29.04-.41.12-.12.08-.24.17-.34.27-.08.12-.15.25-.19.39-.05.14-.06.28-.04.43,0,.16.04.32.11.47"/><path id="Path_31056" class="cls-4" d="m20.26,29.57h25.6c.14,0,.28-.03.41-.08.13-.05.25-.13.34-.23.1-.1.18-.22.23-.35.1-.28.1-.58,0-.86-.05-.13-.13-.25-.23-.35-.09-.1-.21-.18-.34-.23-.13-.05-.27-.07-.41-.08h-25.6c-.14,0-.28.03-.42.08-.13.05-.25.13-.34.23-.1.1-.18.22-.22.35-.1.28-.1.58,0,.86.04.13.12.26.23.35.09.1.21.18.34.23.13.05.27.07.42.08"/><path id="Path_31057" class="cls-4" d="m8.08,66.16H1.34c-.06,0-.11.01-.17.03-.05.02-.1.05-.14.09-.04.04-.07.09-.09.14-.02.06-.03.11-.03.17v5.59c0,.06.01.12.03.17.02.05.05.1.09.14.04.04.09.07.14.1.05.02.11.03.17.03h6.74v.95H1.34c-.09,0-.17-.01-.26-.03-.09-.02-.18-.05-.26-.08-.08-.03-.16-.07-.23-.12-.07-.05-.14-.11-.2-.17-.13-.13-.22-.27-.29-.44-.03-.09-.06-.18-.08-.27-.02-.09-.03-.18-.03-.27v-5.58c0-.09.01-.18.03-.27.02-.09.04-.18.08-.27.03-.09.07-.17.12-.24.05-.07.1-.14.17-.2.06-.06.13-.12.2-.17.07-.05.15-.09.23-.12.08-.04.17-.06.26-.08.09-.02.17-.03.26-.03h6.74v.93h0Z"/><path id="Path_31058" class="cls-4" d="m20.73,65.21v.94h-6.48v2.77h5.21v.96h-5.21v2.77h6.48v.95h-7.39v-8.39h7.39Z"/><path id="Path_31059" class="cls-3" d="m34.09,66.63v2.46c0,.09-.01.18-.03.27-.02.09-.04.18-.08.27-.03.09-.07.17-.12.24-.05.07-.11.14-.17.2-.06.06-.13.12-.2.17-.07.05-.15.09-.23.12-.08.04-.17.06-.26.08-.09.02-.17.03-.26.03h-1.24l2.54,3.12h-1.21l-2.53-3.12h-2.97c-.15,0-.3-.02-.44-.05v3.16h-.92v-8.36h6.76c.09,0,.17.01.26.03.09.02.17.04.26.08.08.03.16.08.23.13.14.1.27.23.36.38.05.08.09.16.12.24.04.09.06.18.08.27.02.09.03.18.03.28m-6.76,2.9h5.41c.06,0,.11-.01.17-.03.06-.01.11-.05.14-.09.04-.04.07-.09.09-.14.02-.06.03-.11.03-.17v-2.46c0-.12-.04-.23-.12-.32-.07-.09-.19-.15-.31-.14h-5.42c-.06,0-.11.01-.17.03-.05.02-.1.05-.14.1-.04.04-.07.09-.09.14-.02.06-.03.11-.03.17v2.46c0,.12.05.24.14.32.07.09.18.15.29.14"/><path id="Path_31060" class="cls-4" d="m38.94,65.21h8.1v.94h-3.58v7.43h-.92v-7.43h-3.6v-.94Zm13.02,0h.92v8.38h-.92v-8.38Zm13.09,0h1.17l-3.39,4.19,3.4,4.19h-1.19l-3.02-3.72h-2.61v3.72h-.91v-8.38h.93v3.72h2.61l3.01-3.72Z"/></g></g></g></g></svg>