<?xml version="1.0" encoding="UTF-8"?><svg id="Layer_2" xmlns="http://www.w3.org/2000/svg" viewBox="0 0 33.24 23.91"><defs><style>.cls-1{fill:#fff;}</style></defs><g id="Layer_1-2"><g id="Group_30191"><path id="Path_31082" class="cls-1" d="m33.24,19.58c-.09-5.77-1.49-11.44-4.1-16.59C26.85,1.19,24.05.15,21.14,0l-.4.46c2.59.69,5.01,1.92,7.09,3.62-2.65-1.46-5.56-2.39-8.57-2.73-1.91-.21-3.84-.19-5.75.06-.16,0-.32.02-.48.06-2.23.25-4.41.86-6.46,1.79-1.05.48-1.68.83-1.68.83,2.19-1.78,4.75-3.05,7.49-3.73l-.28-.34c-2.91.14-5.71,1.19-8,2.99C1.49,8.14.09,13.81,0,19.58c0,0,2.39,4.13,8.68,4.33,0,0,1.05-1.28,1.91-2.36-2-.5-3.76-1.69-4.98-3.36,0,0,.28.2.8.48.03.04.07.06.11.08.09.06.17.09.26.14.67.37,1.36.69,2.08.97,1.35.53,2.75.94,4.18,1.22,2.43.47,4.93.48,7.37.03,1.42-.25,2.8-.66,4.12-1.22,1.15-.43,2.25-1,3.27-1.68-1.26,1.7-3.09,2.9-5.15,3.38.85,1.08,1.88,2.31,1.88,2.31h0c6.29-.2,8.71-4.33,8.71-4.33m-21.94-2.64c-1.67-.08-2.96-1.49-2.9-3.16-.07-1.67,1.23-3.09,2.9-3.16,1.66.06,2.96,1.46,2.9,3.12,0,.01,0,.02,0,.04.07,1.67-1.23,3.09-2.9,3.16m10.39,0c-1.67-.08-2.96-1.49-2.9-3.16-.07-1.67,1.23-3.09,2.9-3.16,1.67.07,2.97,1.49,2.9,3.16.07,1.67-1.23,3.09-2.9,3.16"/></g></g></svg>