<?xml version="1.0" encoding="UTF-8"?>
<svg id="Layer_2" data-name="Layer 2" xmlns="http://www.w3.org/2000/svg" viewBox="0 0 26.78 26.07">
  <defs>
    <style>
      .cls-1 {
        fill: #fff;
      }
    </style>
  </defs>
  <g id="svg2575">
    <g id="tootericon_github" data-name="tootericon github">
      <path id="Path_24899" data-name="Path 24899" class="cls-1" d="M26.78,13.61C26.9,6.21,21,.12,13.61,0,6.21-.12,.12,5.78,0,13.17c-.09,5.79,3.55,10.99,9.03,12.88,.38-.19,.64-.56,.69-.98,0-.72-.02-2.59-.02-2.59-.47,.07-.94,.1-1.41,.1-1.36,.09-2.62-.74-3.07-2.03-.29-.73-.82-1.35-1.5-1.75-.35-.22-.43-.48-.03-.55,1.85-.34,2.32,2.05,3.56,2.43,.85,.26,1.78,.19,2.58-.2,.12-.68,.5-1.29,1.06-1.69-3.14-.3-5.01-1.36-5.97-3.08l-.1-.19-.24-.54-.07-.2c-.31-.96-.46-1.97-.44-2.98-.06-1.41,.48-2.78,1.48-3.78-.41-1.25-.32-2.6,.23-3.79,0,0,1.36-.28,3.93,1.52,2.25-.59,4.6-.63,6.87-.13,1.08-.7,3.05-1.69,3.85-1.41,.22,.34,.68,1.33,.28,3.5,1.12,1.17,1.73,2.74,1.68,4.36,0,.91-.12,1.82-.34,2.71l-.12,.39s-.07,.18-.14,.36l-.09,.19c-.93,2-2.84,2.75-5.93,3.06,1,.62,1.29,1.39,1.29,3.48s-.03,2.37-.02,2.85c.06,.41,.31,.76,.66,.96,5.39-1.77,9.04-6.79,9.07-12.46Z"/>
    </g>
  </g>
</svg>