<?xml version="1.0" encoding="UTF-8"?>
<svg id="Layer_2" data-name="Layer 2" xmlns="http://www.w3.org/2000/svg" viewBox="0 0 25.3 23.8">
  <defs>
    <style>
      .cls-1 {
        fill: #fff;
      }
    </style>
  </defs>
  <g id="svg2575">
    <path id="tootericon_tg" data-name="tootericon tg" class="cls-1" d="M23.45,.26L.98,9.86S-.08,10.26,0,10.99s.95,1.07,.95,1.07l5.65,2.07h0L20.18,4.74s.78-.52,.76,0c0,0,.14,.09-.28,.52S9.99,15.71,9.99,15.71l-.73,6.83v.02c.2,.08,.43,.05,.6-.09l3.65-3.63,5.69,4.75c.69,.4,1.58,.16,1.98-.53,.05-.08,.09-.17,.12-.26L25.3,.84c0-1.46-1.85-.58-1.85-.58Z"/>
  </g>
</svg>