<?xml version="1.0" encoding="UTF-8"?>
<svg id="Layer_2" data-name="Layer 2" xmlns="http://www.w3.org/2000/svg" viewBox="0 0 32.08 25.62">
  <defs>
    <style>
      .cls-1 {
        fill: #fff;
      }
    </style>
  </defs>
  <g id="svg2575">
    <g id="tootericon_twitter" data-name="tootericon twitter">
      <path id="Path_317" data-name="Path 317" class="cls-1" d="M32.08,3.03c-1.2,.52-2.48,.87-3.78,1.02,1.37-.8,2.4-2.07,2.89-3.58-1.3,.75-2.71,1.28-4.18,1.57C25.76,.73,24.02,0,22.21,0c-3.6-.03-6.55,2.86-6.58,6.47,0,.5,.06,.99,.17,1.47-5.27-.25-10.19-2.7-13.57-6.76-.58,.98-.89,2.11-.89,3.25,0,2.17,1.1,4.2,2.93,5.38-1.04-.03-2.06-.31-2.98-.81v.08c.02,3.1,2.23,5.76,5.28,6.34-.97,.26-1.99,.3-2.97,.11,.89,2.65,3.35,4.45,6.15,4.49-2.34,1.8-5.22,2.78-8.17,2.77-.52,0-1.05-.03-1.57-.09,3.02,1.9,6.52,2.91,10.09,2.91,10.18,.16,18.56-7.95,18.72-18.13,0-.09,0-.18,0-.27,0-.28,0-.56-.02-.84,1.29-.91,2.4-2.05,3.28-3.35"/>
    </g>
  </g>
</svg>