<?xml version="1.0" encoding="utf-8"?>
<!-- Generator: Adobe Illustrator 27.0.1, SVG Export Plug-In . SVG Version: 6.00 Build 0)  -->
<svg version="1.1" id="Layer_2_00000022523180236086361840000005299639162107031476_"
	 xmlns="http://www.w3.org/2000/svg" xmlns:xlink="http://www.w3.org/1999/xlink" x="0px" y="0px" viewBox="0 0 24.2 23.5"
	 style="enable-background:new 0 0 24.2 23.5;" xml:space="preserve">
<style type="text/css">
	.st0{fill:#FFFFFF;}
</style>
<g id="Group_29891" transform="translate(0 0)">
	<g>
		<g id="Group_29890" transform="translate(0 0)">
			<path id="Path_31018" class="st0" d="M10.9,17.3c0.4,0,0.7,0.3,0.7,0.7c0,0.4-0.3,0.7-0.7,0.7c-0.4,0-0.7-0.3-0.7-0.7
				C10.3,17.6,10.6,17.3,10.9,17.3C10.9,17.3,10.9,17.3,10.9,17.3 M21.4,13.1c-0.4,0-0.7-0.3-0.7-0.7c0-0.4,0.3-0.7,0.7-0.7
				s0.7,0.3,0.7,0.7C22.1,12.8,21.8,13.1,21.4,13.1 M21.4,10.4c-1.1,0-2.1,0.9-2.1,2.1c0,0.2,0,0.4,0.1,0.6l-6.8,3.6
				c-0.4-0.6-1-0.9-1.7-0.9c-0.8,0-1.5,0.4-1.9,1.1l-6.1-3.2c-0.6-0.4-1.1-1.4-1.1-2.4c0-0.5,0.2-0.9,0.5-1c0.2-0.1,0.4-0.1,0.6,0
				l0,0c1.6,0.9,7,3.6,7.2,3.7c0.4,0.1,0.5,0.2,1.1-0.1l11-5.7c0.2-0.1,0.4-0.2,0.4-0.5c0-0.3-0.3-0.5-0.3-0.5
				c-0.6-0.3-1.6-0.7-2.5-1.2c-2-0.9-4.3-2-5.3-2.5c-0.9-0.5-1.6-0.1-1.7,0l-0.2,0.1C8.1,6.1,2.1,9.1,1.7,9.3c-0.6,0.4-1,1.1-1,2
				c-0.1,1.5,0.7,3,1.7,3.5l6.5,3.4c0.1,1,1,1.8,2,1.8c1.1,0,2-0.9,2.1-2l7.1-3.9c0.9,0.7,2.2,0.5,2.9-0.4s0.5-2.2-0.4-2.9
				C22.3,10.5,21.9,10.4,21.4,10.4"/>
		</g>
	</g>
</g>
</svg>
