<?xml version="1.0" encoding="UTF-8"?>
<svg id="Layer_2" data-name="Layer 2" xmlns="http://www.w3.org/2000/svg" viewBox="0 0 22.83 21.47">
  <defs>
    <style>
      .cls-1 {
        fill: #fff;
      }
    </style>
  </defs>
  <g id="svg2575">
    <path id="headericon_tg" data-name="headericon tg" class="cls-1" d="M21.16,.24L.89,8.9S-.07,9.26,0,9.92s.86,.96,.86,.96l5.1,1.87h0L18.21,4.28s.71-.47,.68,0c0,0,.13,.08-.25,.47S9.02,14.18,9.02,14.18l-.66,6.16v.02c.18,.07,.39,.04,.54-.08l3.3-3.27,5.14,4.29c.63,.36,1.43,.14,1.79-.48,.04-.07,.08-.15,.1-.23L22.83,.76c0-1.32-1.67-.52-1.67-.52Z"/>
  </g>
</svg>