<?xml version="1.0" encoding="UTF-8"?>
<svg id="Layer_2" data-name="Layer 2" xmlns="http://www.w3.org/2000/svg" viewBox="0 0 28.95 23.12">
  <defs>
    <style>
      .cls-1 {
        fill: #fff;
      }
    </style>
  </defs>
  <g id="svg2575">
    <g id="icon_twitter" data-name="icon twitter">
      <path id="Path_317" data-name="Path 317" class="cls-1" d="M28.94,2.74c-1.09,.47-2.24,.78-3.41,.92,1.23-.72,2.16-1.87,2.61-3.23-1.17,.68-2.44,1.16-3.77,1.42C23.24,.66,21.67,0,20.04,0c-3.25-.03-5.91,2.58-5.94,5.84,0,.45,.05,.89,.15,1.33-4.76-.23-9.2-2.44-12.24-6.1-.53,.89-.8,1.9-.8,2.93,0,1.96,1,3.79,2.64,4.86-.94-.03-1.86-.28-2.69-.73v.07c.02,2.8,2.01,5.2,4.76,5.72-.88,.23-1.79,.27-2.68,.1,.8,2.39,3.02,4.02,5.55,4.05-2.11,1.63-4.71,2.51-7.38,2.5-.47,0-.95-.03-1.42-.08,2.72,1.72,5.88,2.63,9.1,2.62,9.18,.15,16.75-7.17,16.9-16.36,0-.08,0-.17,0-.25,0-.25,0-.51-.02-.76,1.16-.82,2.16-1.85,2.96-3.02"/>
    </g>
  </g>
</svg>