<?xml version="1.0" encoding="UTF-8"?>
<svg id="Layer_2" data-name="Layer 2" xmlns="http://www.w3.org/2000/svg" viewBox="0 0 24.17 23.52">
  <defs>
    <style>
      .cls-1 {
        fill: #fff;
      }
    </style>
  </defs>
  <g id="svg2575">
    <g id="icon_github" data-name="icon github">
      <path id="Path_24899" data-name="Path 24899" class="cls-1" d="M24.16,12.28C24.27,5.61,18.95,.11,12.28,0,5.61-.11,.11,5.22,0,11.89c-.08,5.23,3.2,9.92,8.15,11.62,.34-.17,.58-.5,.62-.88,0-.65-.01-2.33-.01-2.33-.42,.06-.85,.09-1.27,.09-1.23,.08-2.36-.67-2.77-1.83-.27-.66-.74-1.22-1.36-1.58-.31-.2-.38-.43-.02-.5,1.67-.31,2.1,1.85,3.21,2.2,.77,.24,1.6,.17,2.33-.18,.1-.62,.45-1.17,.96-1.53-2.84-.27-4.52-1.23-5.39-2.78l-.09-.17-.22-.49-.07-.18c-.28-.87-.41-1.78-.39-2.69-.05-1.27,.43-2.51,1.33-3.41-.37-1.13-.29-2.35,.21-3.42,0,0,1.23-.25,3.55,1.38,2.03-.53,4.15-.57,6.2-.12,.97-.63,2.75-1.52,3.47-1.27,.48,.98,.57,2.11,.25,3.16,1.01,1.06,1.56,2.47,1.52,3.93,0,.82-.11,1.64-.31,2.44l-.1,.35s-.06,.16-.12,.32l-.08,.17c-.84,1.81-2.57,2.48-5.35,2.76,.9,.56,1.16,1.25,1.16,3.14s-.03,2.14-.02,2.58c.06,.37,.28,.69,.6,.87,4.86-1.6,8.16-6.13,8.18-11.24Z"/>
    </g>
  </g>
</svg>