<?xml version="1.0" encoding="UTF-8"?><svg id="Layer_1" xmlns="http://www.w3.org/2000/svg" xmlns:xlink="http://www.w3.org/1999/xlink" viewBox="0 0 110 110"><defs><style>.cls-1{fill:url(#linear-gradient);}.cls-2{fill:#fff;}.cls-3{fill:#64edac;}.cls-4{fill:url(#linear-gradient-2);}</style><linearGradient id="linear-gradient" x1="-65.92" y1="154.74" x2="-65.92" y2="153.51" gradientTransform="translate(4999.97 2067.43) scale(75.01 -12.91)" gradientUnits="userSpaceOnUse"><stop offset="0" stop-color="#ffe89b"/><stop offset=".17" stop-color="#fee091"/><stop offset=".45" stop-color="#fdcd76"/><stop offset=".82" stop-color="#fbaf4c"/><stop offset="1" stop-color="#fb9e34"/></linearGradient><linearGradient id="linear-gradient-2" x1="-65.3" y1="171.6" x2="-65.29" y2="170.85" gradientTransform="translate(6666.46 11275.16) scale(101.25 -65.62)" xlink:href="#linear-gradient"/></defs><g id="Layer_1-2"><g id="Group_29782"><path id="Path_30464" class="cls-2" d="M6.7,108.79h2.62v-3.64l1.38-1.43,3.69,5.07h3.14l-5.07-6.85,4.86-5.05h-3.21l-4.79,5.2v-5.2h-2.62v11.9Zm12.53,0h2.62v-11.9h-2.62v11.9Zm5.59,0h2.58v-7.57l5.77,7.57h2.23v-11.9h-2.59v7.33l-5.58-7.33h-2.41v11.9Zm19.16,.2c1.87,0,3.67-.66,5.08-1.89v-5.16h-5.17v2.26h2.63v1.7c-.73,.49-1.59,.74-2.47,.71-1.97,.02-3.58-1.55-3.61-3.52,0-.08,0-.17,0-.25v-.03c-.07-1.96,1.45-3.62,3.41-3.71,1.16-.02,2.27,.41,3.11,1.21l1.65-1.99c-1.28-1.13-2.96-1.72-4.67-1.63-3.37-.07-6.17,2.6-6.24,5.98,0,.06,0,.12,0,.17v.03c-.1,3.28,2.48,6.02,5.77,6.12,.16,0,.33,0,.49,0Zm7.94-.2h7.87v-.82h-6.99v-11.08h-.88v11.9Zm9.42,0h.92l1.52-3.33h7.02l1.51,3.33h.97l-5.54-11.98h-.85l-5.54,11.98Zm2.81-4.13l3.15-6.89,3.13,6.89h-6.27Zm11.65,4.13h.85v-10.57l8.38,10.57h.66v-11.9h-.85v10.35l-8.21-10.35h-.83v11.9Zm13.43,0h3.96c3.74,0,6.32-2.6,6.32-5.95v-.03c0-3.35-2.58-5.92-6.32-5.92h-3.96v11.9Zm3.96-11.08c2.81-.17,5.23,1.97,5.4,4.78,0,.12,.01,.23,0,.35v.03c.03,2.79-2.2,5.08-4.99,5.11-.14,0-.28,0-.42-.01h-3.08v-10.27h3.08Z"/><path id="Rectangle_8876" class="cls-1" d="M23.95,74.83h62.1c3.56,0,6.46,2.89,6.46,6.45h0c0,3.56-2.89,6.45-6.46,6.45H23.95c-3.56,0-6.45-2.89-6.45-6.45h0c0-3.56,2.89-6.45,6.45-6.45Z"/><path id="Path_30329" class="cls-4" d="M101.3,26.62l-15.32,10.03c-1.14,.82-2.7,.64-3.64-.4L57.04,5.67c-1.01-1.13-2.73-1.23-3.86-.22-.08,.07-.15,.14-.22,.22l-25.31,30.58c-.93,1.04-2.5,1.22-3.64,.4l-15.32-10.03c-1.23-.88-2.94-.6-3.82,.63-.47,.66-.63,1.49-.43,2.27l14.44,38.8c.31,1.21,1.4,2.05,2.65,2.05h16.97c-.35-.63-.57-1.32-.64-2.03l-1.58-14.47c-.13-1.39,.3-2.77,1.2-3.84l13.54-16.08c1.85-2.2,5.13-2.48,7.33-.63,.23,.19,.44,.4,.63,.63l13.54,16.09c.9,1.07,1.33,2.45,1.2,3.84l-1.58,14.47c-.07,.71-.29,1.41-.64,2.03h16.94c1.25,0,2.34-.84,2.65-2.05l14.44-38.8c.38-1.46-.51-2.95-1.97-3.33-.78-.2-1.62-.04-2.28,.43h0Z"/><g id="Group_29781"><path id="Path_30330" class="cls-3" d="M56.11,56.75h10.67l.14-1.32c.11-1.03-.2-2.06-.87-2.86l-8.16-9.69c-.47-.56-1.09-.97-1.79-1.18v15.05Z"/><path id="Path_30331" class="cls-3" d="M43.21,56.75h10.67v-15.05c-.7,.21-1.32,.62-1.79,1.18l-8.16,9.69c-.67,.79-.98,1.83-.87,2.86l.14,1.32Z"/><path id="Path_30332" class="cls-3" d="M53.89,58.98h-10.43l.45,4.12c.21,1.93,1.84,3.38,3.77,3.39h6.21v-7.5Z"/><path id="Path_30333" class="cls-3" d="M56.11,58.98v7.5h6.21c1.94,0,3.56-1.46,3.78-3.39l.45-4.12h-10.43Z"/></g></g></g></svg>