<?xml version="1.0" encoding="UTF-8"?>
<svg id="Layer_2" data-name="Layer 2" xmlns="http://www.w3.org/2000/svg" viewBox="0 0 69.31 69.31">
  <defs>
    <style>
      .cls-1 {
        fill: #f9e988;
      }

      .cls-2 {
        fill: #009345;
      }

      .cls-3 {
        fill: #fff;
      }

      .cls-4 {
        fill: #8dc63f;
      }

      .cls-5 {
        fill: #8bc53f;
      }

      .cls-6 {
        fill: #58595b;
      }
    </style>
  </defs>
  <g id="svg2575">
    <g id="logo_coingecko" data-name="logo coingecko">
      <path id="Path_30275" data-name="Path 30275" class="cls-4" d="M69.31,34.52c.07,19.14-15.39,34.71-34.52,34.78C15.64,69.38,.07,53.92,0,34.78-.07,15.66,15.36,.1,34.48,0c19.14-.1,34.73,15.34,34.83,34.48,0,.01,0,.03,0,.04h0Z"/>
      <path id="Path_30276" data-name="Path 30276" class="cls-1" d="M66.73,34.52c.12,17.71-14.15,32.16-31.86,32.28S2.71,52.65,2.59,34.94,16.74,2.78,34.45,2.67c0,0,.02,0,.03,0,17.7-.1,32.13,14.16,32.25,31.86h0Z"/>
      <path id="Path_30277" data-name="Path 30277" class="cls-3" d="M35.26,4.72c2.04-.35,4.12-.35,6.16,0,2.06,.32,4.06,.99,5.9,1.97,1.77,1.06,3.43,2.27,4.98,3.63,1.57,1.27,3.15,2.58,4.63,4.02,1.52,1.4,2.84,3,3.93,4.76,1.12,1.74,2.05,3.6,2.75,5.55,1.37,3.91,1.76,8.1,1.14,12.19h-.22c-.59-3.91-1.6-7.75-3.01-11.45-.67-1.83-1.46-3.61-2.36-5.33-.94-1.72-1.98-3.38-3.1-4.98-1.16-1.63-2.58-3.06-4.2-4.24-1.64-1.1-3.42-1.98-5.29-2.62-1.79-.7-3.63-1.44-5.51-2.01-1.88-.52-3.8-.96-5.81-1.35v-.13Z"/>
      <path id="Path_30278" data-name="Path 30278" class="cls-5" d="M50.91,23.21c-2.32-.66-4.72-1.62-7.17-2.58-.36-.93-.98-1.74-1.79-2.32-1.57-1.4-4.59-1.36-7.17-.74-2.74-.74-5.61-.83-8.39-.26-22.16,6.12-9.61,20.98-17.74,35.97,1.14,2.45,13.64,16.78,31.68,12.93,0,0-6.16-14.82,7.78-21.94,11.32-5.77,19.45-16.52,2.8-21.06h0Z"/>
      <path id="Path_30279" data-name="Path 30279" class="cls-2" d="M34.78,17.57c1.62,.13,7.47,2.01,8.96,3.06-1.27-3.63-5.46-4.11-8.96-3.06Z"/>
      <path id="Path_30280" data-name="Path 30280" class="cls-3" d="M53.66,32.95c0,.74-.6,1.34-1.35,1.34-.35,0-.68-.14-.93-.38-.53-.54-.52-1.4,.02-1.93,.24-.24,.56-.37,.9-.39,.74,.02,1.34,.61,1.36,1.36h0Zm-17.35-6.16c0,3.46-2.79,6.27-6.25,6.28-3.46,0-6.27-2.79-6.28-6.25,0-3.46,2.79-6.27,6.25-6.28,1.65,0,3.23,.64,4.4,1.79,1.2,1.17,1.88,2.78,1.88,4.46Z"/>
      <path id="Path_30281" data-name="Path 30281" class="cls-6" d="M34.48,26.83c0,1.77-1.07,3.36-2.71,4.02-2.24,.92-4.8-.14-5.72-2.38s.14-4.8,2.38-5.72c.52-.22,1.08-.33,1.65-.33,2.43,.02,4.39,1.99,4.41,4.41h0Z"/>
      <path id="Path_30282" data-name="Path 30282" class="cls-5" d="M58.69,35.7c-5.43,4.07-12.05,6.25-18.83,6.21-3.8,0-4.54-4.02-7.08-2.05-1.31,1.01-5.86,3.28-9.48,3.15-3.63-.17-9.48-2.32-11.1-10.01-.66,7.73-.96,13.42-3.89,19.93,5.77,9.27,19.53,16.39,32.03,13.33-1.36-9.4,6.86-18.57,11.45-23.25,1.79-1.83,5.16-4.72,6.9-7.3h0Z"/>
      <path id="Path_30283" data-name="Path 30283" class="cls-6" d="M58.47,35.92c-1.59,1.39-3.37,2.53-5.29,3.41-1.91,.9-3.9,1.63-5.94,2.18-2.06,.6-4.2,.85-6.34,.74-2.19-.07-4.27-.98-5.81-2.54l.09-.09c1.76,1.05,3.76,1.61,5.81,1.62,2.05,.06,4.1-.1,6.12-.48,2.03-.44,4.02-1.05,5.94-1.83,1.95-.74,3.79-1.76,5.46-3.02h-.04Z"/>
    </g>
  </g>
</svg>