<?xml version="1.0" encoding="UTF-8"?>
<svg id="Layer_2" data-name="Layer 2" xmlns="http://www.w3.org/2000/svg" viewBox="0 0 64.41 65.4">
  <defs>
    <style>
      .cls-1 {
        fill: #fff;
      }
    </style>
  </defs>
  <g id="svg2575">
    <path id="logo_cmc" data-name="logo cmc" class="cls-1" d="M64.39,32.7v-.13C64.33,14.64,49.88,0,32.2,0S0,14.64,0,32.7s14.45,32.7,32.2,32.7c8.14,0,15.97-3.13,21.86-8.75,1.2-1.11,1.26-2.99,.15-4.18-1.1-1.18-2.94-1.26-4.14-.19l-.06,.06c-10.43,9.91-26.91,9.48-36.82-.94-.24-.25-.47-.51-.7-.77l13.75-22.05v10.2c0,4.88,1.9,6.46,3.49,6.91s3.99,.13,6.59-3.99l7.54-12.23c.2-.36,.44-.7,.7-1.01v6.21c0,4.56,1.84,8.24,5.01,10.01,2.98,1.62,6.61,1.48,9.44-.38,3.67-2.4,5.63-6.58,5.38-11.59Zm-8.37,6.4c-1.03,.71-2.36,.8-3.49,.25-1.27-.76-2.03-2.47-2.03-4.82v-7.16c0-3.42-1.33-5.89-3.61-6.53-3.87-1.14-6.78,3.61-7.86,5.39l-6.84,10.97v-13.5c-.06-3.11-1.08-4.94-2.98-5.51-1.27-.38-3.17-.19-5.01,2.6l-15.27,24.46c-2.03-3.87-3.1-8.18-3.1-12.55-.2-14.56,11.44-26.53,26-26.73,14.56-.2,26.53,11.44,26.73,26,0,.24,0,.48,0,.73v.13c.12,2.85-.76,5.14-2.54,6.27h0Z"/>
  </g>
</svg>