<?xml version="1.0" encoding="UTF-8"?>
<svg id="Layer_2" data-name="Layer 2" xmlns="http://www.w3.org/2000/svg" xmlns:xlink="http://www.w3.org/1999/xlink" viewBox="0 0 69.31 69.18">
  <defs>
    <style>
      .cls-1 {
        fill: none;
      }

      .cls-2 {
        clip-path: url(#clippath);
      }

      .cls-3 {
        fill: #fff;
      }

      .cls-4 {
        fill: #f0b90b;
      }

      .cls-5 {
        fill: #12161c;
      }
    </style>
    <clipPath id="clippath">
      <rect class="cls-1" x="0" y="0" width="69.3" height="69.17"/>
    </clipPath>
  </defs>
  <g id="svg2575">
    <g id="logo_bscscan" data-name="logo bscscan">
      <g class="cls-2">
        <g id="Group_29668" data-name="Group 29668">
          <path id="Path_30287" data-name="Path 30287" class="cls-3" d="M68.99,34.24c0,18.91-15.33,34.24-34.24,34.24-18.91,0-34.24-15.33-34.24-34.24C.51,15.34,15.84,0,34.75,0c0,0,0,0,0,0,18.91,0,34.24,15.33,34.24,34.24h0"/>
          <path id="Path_30288" data-name="Path 30288" class="cls-5" d="M14.41,32.89c0-1.62,1.31-2.94,2.94-2.94h.01l4.89,.02c1.62,0,2.94,1.32,2.94,2.94h0v18.5c.55-.16,1.26-.34,2.03-.52,1.11-.26,1.89-1.25,1.89-2.38V25.56c0-1.62,1.32-2.94,2.94-2.94h4.9c1.62,0,2.94,1.32,2.94,2.94v21.29s1.23-.5,2.42-1c.91-.38,1.5-1.27,1.5-2.26V18.21c0-1.62,1.32-2.94,2.94-2.94h4.9c1.62,0,2.94,1.32,2.94,2.94v20.9c4.51-3.15,8.54-6.93,11.97-11.23,1.01-1.31,1.29-3.04,.75-4.61C61.05,5.21,41.33-4.35,23.27,1.93,5.21,8.2-4.35,27.92,1.93,45.98c.71,2.04,1.61,4.01,2.69,5.89,.85,1.47,2.48,2.32,4.18,2.16,.93-.08,2.08-.2,3.45-.36,1.24-.14,2.17-1.19,2.17-2.43v-18.36"/>
          <path id="Path_30289" data-name="Path 30289" class="cls-4" d="M14.31,62.55c15.46,11.25,37.12,7.84,48.37-7.63,4.31-5.92,6.63-13.06,6.63-20.38,0-.8-.04-1.58-.09-2.37-12.66,18.87-36.02,27.69-54.91,30.38"/>
        </g>
      </g>
    </g>
  </g>
</svg>