<?xml version="1.0" encoding="UTF-8"?><svg id="Layer_1" xmlns="http://www.w3.org/2000/svg" viewBox="0 0 130 30"><defs><style>.cls-1{fill:#999;}</style></defs><g id="Group_29813"><path id="Path_30425" class="cls-1" d="M21.52,21.07h5.93c.76,0,1.39-.62,1.39-1.38,0-.13-.02-.26-.06-.39-1.06-3.53-3.77-6.34-7.26-7.53v9.3Z"/><path id="Path_30426" class="cls-1" d="M14.19,11.77c-3.5,1.19-6.21,4-7.27,7.54-.21,.73,.2,1.49,.93,1.71,.13,.04,.26,.06,.39,.06h5.95V11.77Z"/><g id="Group_29812"><path id="Path_30427" class="cls-1" d="M9.38,12.88c-1.11,.99-2.05,2.15-2.79,3.44-.16,.27-.5,.36-.77,.21-.06-.03-.11-.08-.16-.13-1.85-2.62-2.85-5.75-2.87-8.96,0-1.16,.17-2.31,.5-3.42,.09-.3,.41-.47,.7-.37,.19,.06,.34,.22,.39,.42,.68,3.1,2.49,6.4,4.92,7.92,.26,.16,.35,.51,.18,.77-.03,.05-.07,.09-.11,.13h0Z"/><path id="Path_30440" class="cls-1" d="M26.36,12.88c1.11,.99,2.05,2.15,2.79,3.44,.16,.27,.5,.36,.77,.21,.06-.03,.11-.08,.16-.13,1.85-2.62,2.85-5.75,2.87-8.96,0-1.16-.17-2.31-.5-3.42-.09-.3-.4-.47-.7-.38-.2,.06-.35,.22-.39,.42-.68,3.1-2.49,6.4-4.92,7.92-.26,.16-.35,.51-.18,.77,.03,.05,.07,.09,.11,.13h0Z"/></g><path id="Path_30429" class="cls-1" d="M18.42,10.04h-1.06c-1.08,0-1.96,.88-1.96,1.96v9.05h4.98V12c0-1.08-.88-1.96-1.96-1.96h0Zm-.59,9.42c-.53,0-.95-.43-.95-.95,0-.53,.43-.95,.95-.95s.95,.43,.95,.95c0,.52-.43,.95-.95,.95h0Zm0-2.78c-.53,0-.95-.43-.95-.95,0-.53,.43-.95,.95-.95s.95,.43,.95,.95-.43,.95-.95,.95Zm0-2.78c-.53,0-.95-.43-.95-.95,0-.53,.43-.95,.95-.95s.95,.43,.95,.95c0,.52-.43,.95-.95,.95h0Z"/><path id="Path_30430" class="cls-1" d="M27.33,22.45H8.39c-1.09,.02-1.95,.93-1.92,2.01,.02,1.05,.87,1.9,1.92,1.92H27.33c1.09-.02,1.95-.93,1.92-2.01-.02-1.05-.87-1.9-1.92-1.92Zm-17.75,2.85c-.53,0-.95-.43-.95-.95s.43-.95,.95-.95,.95,.43,.95,.95-.43,.95-.95,.95h0Zm4.14,0c-.53,0-.95-.43-.95-.95s.43-.95,.95-.95,.95,.43,.95,.95-.43,.95-.95,.95h0Zm4.14,0c-.53,0-.95-.43-.95-.95s.43-.95,.95-.95,.95,.43,.95,.95-.43,.95-.95,.95h0Zm4.14,0c-.53,0-.95-.43-.95-.95s.43-.95,.95-.95,.95,.43,.95,.95-.43,.95-.95,.95h0Zm4.14,0c-.53,0-.95-.43-.95-.95,0-.53,.43-.95,.95-.95,.53,0,.95,.43,.95,.95s-.43,.95-.95,.95h0Z"/></g><g id="Group_29814"><path id="Path_30431" class="cls-1" d="M38.18,9.34h2.49v4.95l4.56-4.95h3.06l-4.63,4.8,4.82,6.52h-2.99l-3.51-4.82-1.31,1.36v3.46h-2.49V9.34h0Z"/><path id="Path_30432" class="cls-1" d="M50.1,9.34h2.49v11.32h-2.49V9.34Z"/><path id="Path_30433" class="cls-1" d="M55.42,9.34h2.3l5.31,6.97v-6.97h2.46v11.32h-2.12l-5.48-7.2v7.2h-2.46V9.34h0Z"/><path id="Path_30434" class="cls-1" d="M67.7,15.03v-.03c-.03-3.21,2.56-5.83,5.77-5.86,.06,0,.11,0,.17,0,1.63-.09,3.23,.47,4.45,1.55l-1.57,1.89c-.8-.76-1.86-1.17-2.96-1.15-1.87,.08-3.32,1.66-3.25,3.53v.03c-.11,1.87,1.32,3.48,3.19,3.59,.08,0,.16,0,.24,0,.83,.03,1.65-.21,2.34-.68v-1.62h-2.51v-2.15h4.92v4.92c-1.34,1.16-3.06,1.8-4.84,1.8-3.12,.16-5.78-2.23-5.95-5.35,0-.16-.01-.31,0-.47h0Z"/><path id="Path_30435" class="cls-1" d="M81.21,9.34h7.97v.78h-7.13v4.64h6.41v.78h-6.41v5.13h-.84V9.34Z"/><path id="Path_30436" class="cls-1" d="M91.82,9.34h.84v10.55h6.65v.78h-7.49V9.34Z"/><path id="Path_30437" class="cls-1" d="M100.44,15.03v-.03c-.15-3.14,2.27-5.82,5.42-5.97s5.82,2.27,5.97,5.42c0,.17,0,.35,0,.52v.03c.15,3.14-2.27,5.82-5.42,5.97s-5.82-2.27-5.97-5.42c0-.17,0-.35,0-.52Zm10.52,0v-.03c.11-2.7-1.99-4.99-4.7-5.1-.05,0-.09,0-.14,0-2.68,.02-4.83,2.21-4.8,4.89,0,.06,0,.12,0,.18v.03c-.11,2.7,1.99,4.99,4.7,5.1,.05,0,.09,0,.14,0,2.68-.02,4.83-2.21,4.8-4.89,0-.06,0-.12,0-.18Z"/><path id="Path_30438" class="cls-1" d="M114.69,9.34h.84v7.44l7.21-7.44h1.15l-4.95,5,5.16,6.32h-1.1l-4.66-5.73-2.81,2.85v2.88h-.84V9.34h0Z"/><path id="Path_30439" class="cls-1" d="M126.37,9.34h.84v11.32h-.84V9.34Z"/></g></svg>